<svg xmlns="http://www.w3.org/2000/svg" width="45.031" height="45.031" viewBox="0 0 45.031 45.031">
  <metadata><?xpacket begin="﻿" id="W5M0MpCehiHzreSzNTczkc9d"?>
<x:xmpmeta xmlns:x="adobe:ns:meta/" x:xmptk="Adobe XMP Core 5.6-c142 79.160924, 2017/07/13-01:06:39        ">
   <rdf:RDF xmlns:rdf="http://www.w3.org/1999/02/22-rdf-syntax-ns#">
      <rdf:Description rdf:about=""/>
   </rdf:RDF>
</x:xmpmeta>
                                                                                                    
                                                                                                    
                                                                                                    
                                                                                                    
                                                                                                    
                                                                                                    
                                                                                                    
                                                                                                    
                                                                                                    
                                                                                                    
                                                                                                    
                                                                                                    
                                                                                                    
                                                                                                    
                                                                                                    
                                                                                                    
                                                                                                    
                                                                                                    
                                                                                                    
                                                                                                    
                           
<?xpacket end="w"?></metadata>
<defs>
    <style>
      .cls-1 {
        fill: #e9204f;
        fill-rule: evenodd;
      }
    </style>
  </defs>
  <path class="cls-1" d="M208.519,28.8V29.31a0.255,0.255,0,0,0-.128.127l-1.651-.38H206.3V28.993h-0.508V28.93h-0.635V28.867h-1.08V28.8a4.419,4.419,0,0,0-1.334.063,13.77,13.77,0,0,0-3.431.444l-0.19-.063V29.31H198.99v0.063l-0.509.063V29.5l-0.444.063v0.063h-0.191v0.063h-0.254v0.063l-0.381.063v0.063h-0.127v0.063h-0.191v0.063l-0.571.127V30.2l-0.255.063v0.063h-0.19v0.063H195.75v0.063h-0.191v0.063h-0.127v0.063l-0.254.063v0.063h-0.127v0.063h-0.127v0.063H194.8V30.9H194.67v0.063h-0.127v0.063h-0.127v0.063h-0.127v0.063h-0.127v0.063h-0.127v0.063h-0.127c-0.022.042-.043,0.084-0.064,0.127l-0.254.063c-0.021.042-.042,0.084-0.064,0.127l-0.381.127-0.063.127h-0.127V31.91l-0.191.063L192.7,32.1h-0.127v0.063l-0.191.063c-0.021.042-.042,0.084-0.064,0.127h-0.127l-0.127.19h-0.127l-0.063.127h-0.127c-0.043.063-.085,0.127-0.127,0.19h-0.127l-0.127.19H191.24l-0.255.317h-0.127l-0.381.444H190.35l-0.572.634L188.7,35.46v0.127l-0.318.254v0.127l-0.318.254v0.127l-0.19.127V36.6l-0.191.127v0.127l-0.19.127v0.127l-0.191.127c-0.021.085-.042,0.169-0.064,0.254l-0.19.127v0.127l-0.127.063c-0.021.084-.043,0.169-0.064,0.254h-0.063l-0.064.19-0.127.063v0.127h-0.063v0.127l-0.127.063c-0.043.127-.085,0.254-0.127,0.38l-0.128.063c-0.042.127-.084,0.254-0.127,0.38h-0.063V39.58H185.9v0.127H185.84l-0.127.38h-0.064v0.19h-0.063c-0.021.084-.043,0.169-0.064,0.254h-0.063v0.127H185.4v0.19h-0.063c-0.022.084-.043,0.169-0.064,0.254h-0.063v0.19h-0.064v0.127h-0.063q-0.065.285-.127,0.57h-0.064v0.127h-0.064v0.19H184.76V42.5H184.7v0.19h-0.063c-0.021.169-.042,0.338-0.064,0.507h-0.063v0.19h-0.064v0.254h-0.063v0.253h-0.064v0.317h-0.063v0.254h-0.064v0.317h-0.063V45.1h-0.064v0.38H184v0.507h-0.064v0.571h-0.063v0.761h-0.064V48.2a9.112,9.112,0,0,0,.127,2.219q0.032,0.539.064,1.078c0.174,0.583.251,1.286,0.444,1.838V53.59l0.7,2.092h0.064v0.127h0.063V56h0.064v0.127H185.4v0.19h0.064l0.063,0.254h0.064V56.7h0.063c0.064,0.19.127,0.38,0.191,0.571l0.127,0.063c0.042,0.148.085,0.3,0.127,0.444l0.127,0.063,0.127,0.38,0.127,0.063c0.021,0.084.042,0.169,0.064,0.254l0.127,0.063v0.19l0.19,0.127v0.127l0.127,0.063v0.127L187.11,59.3v0.127h0.064l0.063,0.19,0.127,0.063V59.8l0.191,0.127v0.127l0.127,0.063v0.127l0.254,0.19v0.127l0.191,0.127v0.127l0.254,0.19v0.127h0.063a1.114,1.114,0,0,1,.318.444h0.127V61.7l1.207,1.141,0.191,0.254h0.127l0.063,0.127,0.254,0.19c0.022,0.042.043,0.084,0.064,0.127h0.127v0.063a0.508,0.508,0,0,0,.254.127V63.86l0.191,0.063V41.482a3.9,3.9,0,0,0,.381-0.254L192,41.165l0.063-.127h0.127c0.022-.042.043-0.084,0.064-0.127h0.127V40.848h0.127V40.785h0.127c0.021-.042.042-0.084,0.064-0.127h0.127V40.595h0.127V40.531h0.127V40.468h0.127l0.063-.127,0.254-.063c0.022-.042.043-0.085,0.064-0.127l0.254-.063c0.021-.042.042-0.085,0.064-0.127l0.381-.127,0.063-.127h0.127V39.644h0.127V39.58h0.127c0.022-.042.043-0.084,0.064-0.127l0.381-.127c0.021-.042.042-0.085,0.064-0.127h0.127V39.137H195.5l0.063-.127h0.127V38.946h0.127V38.883h0.127V38.82h0.127V38.756l0.191-.063c0.021-.042.042-0.085,0.064-0.127h0.127V38.5h0.127V38.439H196.7l0.063-.127h0.127V38.249h0.127V38.186h0.127V38.122h0.127c0.022-.042.043-0.085,0.064-0.127l0.254-.063c0.021-.042.042-0.085,0.064-0.127l0.254-.063,0.063-.127H198.1V37.552h0.127V37.488h0.127c0.022-.042.043-0.084,0.064-0.127l0.381-.127c0.021-.042.042-0.084,0.064-0.127l0.381-.127,0.063-.127,0.254-.063c0.022-.042.043-0.084,0.064-0.127h0.127V36.6h0.127V36.537h0.127V36.474h0.127c0.021-.042.042-0.084,0.064-0.127l0.381-.127,0.063-.127,0.254-.063c0.022-.042.043-0.085,0.064-0.127l0.381-.127V35.84a0.421,0.421,0,0,0-.19.19h0.063a0.252,0.252,0,0,1,.127-0.127v8.051H201.4l4.256-2.472V35.84h0.063a0.257,0.257,0,0,0,.127.127,1.252,1.252,0,0,0-.19-0.19V33.241c0.187-.084.338-0.225,0.508-0.317l0.254-.063,0.064-.127,0.254-.063,0.063-.127,0.254-.063c0.022-.042.043-0.085,0.064-0.127l0.381-.127c0.021-.042.042-0.084,0.064-0.127h0.127V32.036l0.254-.063,0.063-.127h0.127V31.783h0.127V31.719l0.191-.063v0.063a1.11,1.11,0,0,1,.064.634,4.062,4.062,0,0,0-.064,1.331,13.035,13.035,0,0,1,.064,1.775,17.673,17.673,0,0,1-.064,3.106,0.1,0.1,0,0,0,.064.127V43.13l-1.335.7-0.063.127-0.381.127-0.064.127-0.381.127-0.063.127-0.382.127-0.063.127-0.254.063-0.064.127h-0.127v0.063h-0.127v0.063h-0.127l-0.063.127-0.382.127-0.063.127-0.381.127-0.064.127h-0.127V45.73h-0.127l-0.063.127-0.382.127-0.063.127-0.381.127-0.064.127-0.381.127-0.063.127-0.255.063-0.063.127h-0.127v0.063h-0.127v0.063h-0.127l-0.064.127-0.381.127-0.063.127-0.255.063-0.063.127-0.381.127-0.064.127-0.381.127-0.063.127h-0.127v0.063h-0.127c-0.022.042-.043,0.084-0.064,0.127h-0.127v0.063H199.5v0.063h-0.127v0.063h-0.127l-0.064.127-0.254.063-0.063.127-0.382.127V40.658l-0.19.063v0.063h-0.127l-0.064.127-0.381.127-0.063.127h-0.127v0.063H197.4v0.063h-0.128l-0.063.127-0.381.127-0.064.127-0.381.127-0.063.127H196.2v0.063h-0.128L196,42.116h-0.127v0.063H195.75v0.063h-0.127v0.063H195.5l-0.064.127-0.254.063-0.063.127h-0.127l-0.826.507V68.868l-0.572-.19V68.615H193.4V68.551h-0.127l-0.063-.127h-0.127V68.361h-0.127V68.3h-0.127V68.234H192.7c-0.022-.042-0.043-0.084-0.064-0.127l-0.381-.127c-0.021-.042-0.042-0.085-0.064-0.127l-0.254-.063-0.063-.127-0.254-.063V67.537l-0.191-.063-0.063-.127-0.255-.063-0.063-.127h-0.127V67.093l-0.191-.063-0.063-.127h-0.127l-0.064-.127-0.19-.063-0.127-.19h-0.127l-0.127-.19h-0.128l-0.063-.127-0.191-.063-0.19-.254h-0.127l-0.318-.38h-0.127l-0.381-.444h-0.127l-0.826-.888-0.572-.507-0.063-.19-0.381-.317V63.036l-0.127-.063-0.191-.254H186.03V62.592l-0.19-.127v-0.19h-0.127V62.149a0.845,0.845,0,0,1-.318-0.38l-0.19-.127V61.515l-0.127-.063V61.325l-0.127-.063V61.134l-0.191-.127V60.881H184.7V60.754l-0.127-.063V60.564l-0.127-.063V60.374l-0.127-.063-0.063-.253-0.127-.063c-0.022-.084-0.043-0.169-0.064-0.254l-0.127-.063-0.127-.38-0.127-.063V59.106h-0.064V58.979h-0.063V58.852h-0.064V58.725h-0.063V58.6h-0.064V58.472H183.3V58.345h-0.064c-0.042-.127-0.084-0.254-0.127-0.38h-0.063v-0.19h-0.064V57.648h-0.063c-0.043-.127-0.085-0.254-0.127-0.38h-0.064v-0.19h-0.063V56.95H182.6l-0.063-.317h-0.064v-0.19h-0.064V56.316h-0.063V56.063h-0.064V55.936h-0.063c-0.021-.127-0.042-0.253-0.064-0.38h-0.063v-0.19h-0.064v-0.19h-0.063c-0.021-.148-0.043-0.3-0.064-0.444h-0.063c-0.021-.148-0.043-0.3-0.064-0.444h-0.063c-0.021-.169-0.043-0.338-0.064-0.507h-0.063V53.527H181.52V53.273h-0.063V52.956h-0.064v-0.38H181.33V52.2h-0.064q-0.031-.38-0.064-0.761h-0.063V50.864a11.114,11.114,0,0,1-.127-2.6,18.236,18.236,0,0,1,.953-6.213c0.063-.275.127-0.549,0.19-0.824h0.064l0.063-.38h0.064V40.721h0.063v-0.19h0.064V40.4h0.064v-0.19H182.6v-0.19h0.064V39.9h0.063v-0.19h0.064l0.063-.254h0.064V39.327h0.063V39.2h0.064V39.01h0.063c0.043-.127.085-0.254,0.127-0.38H183.3V38.5h0.063V38.376h0.064V38.249h0.063V38.122h0.064V38h0.063V37.869h0.064V37.742h0.064V37.615l0.127-.063,0.063-.254,0.127-.063c0.021-.084.042-0.169,0.064-0.254l0.127-.063,0.063-.254h0.064l0.063-.19,0.127-.063c0.022-.084.043-0.169,0.064-0.254l0.127-.063V35.967l0.191-.127V35.713l0.127-.063V35.523l0.19-.127V35.269l0.127-.063V35.079l0.191-.127V34.826l0.19-.127V34.572l0.254-.19V34.255L186.348,34V33.875l0.381-.317V33.431l0.572-.507,1.08-1.141h0.127l0.381-.444h0.127l0.254-.317H189.4l0.127-.19h0.127l0.127-.19h0.128l0.19-.253,0.191-.063,0.063-.127h0.127V30.135l0.191-.063,0.063-.127h0.127l0.127-.19,0.255-.063,0.063-.127h0.127c0.021-.042.042-0.085,0.064-0.127h0.127l0.063-.127,0.254-.063c0.022-.042.043-0.085,0.064-0.127h0.127V29.057h0.127V28.993h0.127V28.93h0.127c0.021-.042.042-0.084,0.064-0.127H192.7V28.74h0.127V28.676h0.127V28.613h0.127V28.55h0.127l0.063-.127,0.572-.19c0.021-.042.042-0.085,0.064-0.127h0.19V28.043h0.127V27.979l0.381-.127V27.789H194.8V27.726h0.127V27.662l0.381-.063V27.535l0.254-.063V27.409l0.381-.063V27.282h0.191V27.218h0.191V27.155h0.19V27.092H196.7V27.028h0.254V26.965h0.19V26.9h0.191V26.838h0.191V26.775h0.254V26.711l0.762-.127V26.521h0.318V26.458h0.317V26.394h0.381c0.33-.1.813-0.158,1.144-0.254l1.524-.063a7.744,7.744,0,0,1,1.716-.063h0.7v0.063H205.6v0.063h0.636l2.159,0.38a0.528,0.528,0,0,1,.128.38h-0.064a0.776,0.776,0,0,0,.064.444v0.063h-0.064V28.3c0.021,0.106.042,0.211,0.064,0.317h-0.064V28.74h-0.064l-0.127.19h0.064A0.192,0.192,0,0,1,208.519,28.8Zm-11.435-1.585a0.26,0.26,0,0,0,.127.127C197.258,27.284,197.1,27.234,197.084,27.218Zm28.015,27.7a0.669,0.669,0,0,1-.254-0.127v0.063l0.19,0.127-0.063.38h-0.064v0.19h-0.063v0.19h-0.064v0.127h-0.063v0.254h-0.064v0.19h-0.063v0.127h-0.064v0.19h-0.064V56.76H224.4v0.19h-0.064v0.127h-0.063v0.19h-0.064c-0.042.127-.084,0.254-0.127,0.38h-0.063v0.127h-0.064v0.19h-0.063c-0.043.127-.085,0.254-0.127,0.38H223.7v0.127h-0.063V58.6h-0.064l-0.127.38-0.127.063v0.19l-0.127.063c-0.021.085-.042,0.169-0.064,0.254L223,59.613c-0.042.127-.084,0.254-0.127,0.38l-0.127.063v0.127h-0.063V60.31l-0.127.063V60.5l-0.127.063v0.127l-0.191.127v0.19l-0.191.127v0.127h-0.063c-0.021.063-.042,0.127-0.064,0.19l-0.127.063v0.127l-0.19.127V61.9l-0.191.127v0.127l-0.381.317v0.127H220.97c-0.022.063-.043,0.127-0.064,0.19h-0.063V62.719l-0.128.063-0.063.127h-0.064c0.022,0.063.043,0.127,0.064,0.19h-0.064a1.312,1.312,0,0,0-.317.444h-0.127a5.022,5.022,0,0,1-.953,1.014l-0.445.507h-0.127l-0.127.19h-0.063c-0.022.042-.043,0.084-0.064,0.127h-0.127l-0.318.38h-0.127l-0.317.38h-0.127l-0.127.19h-0.128l-0.19.254h-0.127c-0.021.042-.042,0.084-0.064,0.127l-0.19.063V66.84H216.4c-0.043.063-.085,0.127-0.127,0.19h-0.127c-0.022.042-.043,0.085-0.064,0.127l-0.254.063-0.127.19H215.57c-0.021.042-.042,0.084-0.064,0.127l-0.381.127-0.127.19h-0.127v0.063h-0.127v0.063h-0.127v0.063H214.49c-0.021.042-.042,0.085-0.064,0.127H214.3v0.063h-0.127V68.3h-0.127v0.063h-0.127v0.063h-0.127l-0.063.127H213.6v0.063H213.41v0.063h-0.127v0.063h-0.127v0.063h-0.127v0.063L212.648,69v0.063h-0.191v0.063l-0.254.063v0.063h-0.191v0.063h-0.127v0.063H211.7v0.063h-0.127V69.5L211,69.629v0.063h-0.127v0.063h-0.191v0.063h-0.19v0.063H210.3v0.063h-0.254V70.01h-0.19v0.063h-0.191v0.063l-0.445.063v0.063H208.9v0.063l-0.826.127a9.3,9.3,0,0,1-2.287.38,13.072,13.072,0,0,1-3.3.063h-0.953V70.834H200.9V70.77h-0.444V70.707h-0.508V70.643h-0.382V70.58h-0.317V70.517a1.727,1.727,0,0,1-.635-0.127c-0.065-.049-0.063-0.078-0.128-0.127V70.136h0.064V70.073h-0.064V69.439a15.788,15.788,0,0,0,0-1.838,0.684,0.684,0,0,1,.255-0.063V67.6l0.889,0.127v0.063h0.318v0.063h0.381a11.669,11.669,0,0,0,2.6.254,3.345,3.345,0,0,0,1.08.063V68.108h1.08V68.044h0.635V67.981h0.509V67.918h0.444c0.48-.141,1.068-0.234,1.525-0.38h0.318V67.474l0.635-.127V67.284h0.19V67.22H209.6V67.157h0.191V67.093h0.127V67.03h0.191V66.967h0.19V66.9h0.191V66.84h0.19V66.776l0.255-.063V66.65h0.127V66.586l0.381-.063L211.5,66.4H211.7V66.333h0.127V66.269h0.127V66.206h0.127V66.142H212.2V66.079h0.127V66.016h0.127V65.952h0.127V65.889h0.127V65.825h0.127V65.762h0.127l0.064-.127,0.381-.127c0.021-.042.042-0.085,0.064-0.127H213.6V65.318h0.127l0.063-.127,0.254-.063L214.109,65h0.127l0.063-.127h0.127c0.022-.042.043-0.084,0.064-0.127h0.127V64.684l0.191-.063,0.063-.127H215l0.191-.254h0.127l0.127-.19h0.127l0.063-.127,0.191-.063,0.254-.317h0.127l0.254-.317h0.127l0.826-.888a2.211,2.211,0,0,0,.7-0.761h0.127a0.814,0.814,0,0,1,.318-0.38V61.071h0.063l0.191-.254,0.127-.063V60.627l0.19-.127,0.064-.19,0.127-.063V60.12l0.127-.063V59.93l0.191-.127V59.676l0.127-.063V59.486l0.19-.127c0.021-.084.043-0.169,0.064-0.254l0.19-.127c0.043-.127.085-0.254,0.127-0.38H220.4l0.063-.19,0.127-.063V58.218h0.064V58.091h0.063V57.965h0.064V57.838l0.127-.063,0.127-.38H221.1V57.267h0.063c0.042-.127.085-0.254,0.127-0.38h0.064V56.7h0.063V56.57h0.064l0.063-.254h0.064v-0.19h0.063V56h0.064v-0.19H221.8c0.022-.085.043-0.169,0.064-0.254h0.063q0.065-.285.127-0.571h0.064v-0.19h0.064V54.668h0.063v-0.19H222.3V54.224h0.063v-0.19h0.064l0.063-.444h0.064V53.337h0.063c0.021-.169.043-0.338,0.064-0.507h0.063V52.513c0.09-.289.167-0.716,0.254-1.014q0.033-.539.064-1.078h0.063V49.66h0.064V48.772q-0.032-1.109-.064-2.219h-0.063q-0.032-.539-0.064-1.078c-0.088-.3-0.163-0.725-0.254-1.014V44.145h-0.063c-0.021-.169-0.043-0.338-0.064-0.507h-0.063V43.384h-0.064l-0.063-.444h-0.064V42.75H222.3V42.5H222.24l-0.063-.38h-0.064V41.989h-0.064q-0.063-.285-0.127-0.57h-0.063c-0.021-.085-0.042-0.169-0.064-0.254h-0.063v-0.19h-0.064V40.848h-0.063v-0.19h-0.064l-0.063-.253h-0.064V40.278h-0.063v-0.19h-0.064l-0.127-.38H221.1V39.58h-0.064l-0.127-.38-0.127-.063V39.01h-0.064V38.883h-0.063V38.756h-0.064V38.629l-0.127-.063V38.439H220.4V38.312h-0.064l-0.063-.19-0.127-.063V37.932l-0.127-.063V37.742l-0.127-.063V37.552l-0.127-.063V37.361H219.7l-0.063-.19-0.128-.063V36.981l-0.127-.063-0.063-.19-0.191-.127V36.474L219,36.411V36.347l-0.127-.063V36.157l-0.254-.19V35.84l-0.445-.38-0.063-.19-0.826-.761-0.508-.571H216.65l-0.191-.253-0.826-.634V55.492c-0.129.065-.259,0.184-0.381,0.254h-0.127l-0.063.127h-0.127v0.063h-0.127V56h-0.127v0.063h-0.128l-0.063.127-0.254.063-0.064.127-0.381.127-0.063.127H213.6V56.7h-0.127c-0.022.042-.043,0.084-0.064,0.127l-0.381.127-0.064.127-0.254.063-0.063.127h-0.127v0.063h-0.127v0.063h-0.127v0.063h-0.128l-0.063.127-0.381.127-0.064.127-0.19.063v0.063H211.25v0.063l-0.19.063c-0.022.042-.043,0.085-0.064,0.127h-0.127v0.063h-0.127v0.063h-0.127v0.063h-0.127l-0.064.127-0.381.127v0.063l-0.19.063c-0.022.042-.043,0.084-0.064,0.127h-0.127v0.063h-0.127v0.063h-0.127v0.063h-0.127v0.063h-0.127l-0.064.127-0.254.063-0.063.127-0.254.063c-0.022.042-.043,0.084-0.064,0.127l-0.381.127-0.064.127-0.381.127-0.063.127h-0.127v0.063h-0.127c-0.022.042-.043,0.084-0.064,0.127l-0.381.127c-0.021.042-.042,0.085-0.064,0.127l-0.381.127-0.063.127-0.254.063a1.283,1.283,0,0,1-.445.254V58.472h0.063a0.256,0.256,0,0,0,.127.127,1.215,1.215,0,0,0-.19-0.19V54.288a0.421,0.421,0,0,0,.19-0.19h-0.063a0.252,0.252,0,0,1-.127.127v-1.2H205.6l-4.256,2.472V58.6a0.421,0.421,0,0,0-.19.19h0.063a0.252,0.252,0,0,1,.127-0.127v5.072l-2.8,1.585c-0.036-.127.008-0.055-0.064-0.127V65.128h0.064V65.065h-0.064c0-.09.021,0.016,0.064-0.063V64.938h-0.064V61.451a0.632,0.632,0,0,0,.255-0.254h-0.064a0.423,0.423,0,0,1-.191.19V53.844l0.763-.38,0.063-.127H199.5l0.063-.127,0.255-.063,0.063-.127,0.318-.063a0.249,0.249,0,0,0,.127.127,0.738,0.738,0,0,1-.127-0.254l0.381-.127,0.063-.127,0.381-.127c0.022-.042.043-0.085,0.064-0.127l0.254-.063c0.021-.042.042-0.084,0.064-0.127h0.127V52.069h0.127V52.006h0.127V51.942h0.127l0.063-.127,0.382-.127,0.063-.127,0.254-.063,0.064-.127,0.254-.063,0.063-.127h0.127V51.118h0.127V51.055h0.127V50.991h0.128l0.063-.127,0.254-.063,0.064-.127,0.254-.063,0.063-.127h0.127V50.421h0.127V50.357h0.127V50.294h0.128l0.063-.127h0.127V50.1h0.127V50.04h0.127V49.977l0.191-.063,0.063-.127H205.6V49.723h0.127V49.66h0.127c0.022-.042.043-0.084,0.064-0.127h0.127V49.47h0.127V49.406H206.3V49.343h0.127l0.064-.127h0.127V49.153h0.127l0.063-.127,0.381-.127c0.022-.042.043-0.084,0.064-0.127l0.254-.063c0.021-.042.042-0.085,0.064-0.127l0.381-.127,0.063-.127h0.127V48.265l0.382-.127c0,2.808,0,5.312,0,8.178l0.19-.063V56.19h0.127V56.126h0.127L209.027,56l0.254-.063,0.063-.127,0.382-.127,0.063-.127h0.127V55.492h0.127c0.021-.042.042-0.084,0.064-0.127l0.381-.127,0.063-.127,0.382-.127L211,54.858l0.381-.127,0.064-.127,0.254-.063,0.063-.127,0.254-.063c0.022-.042.043-0.085,0.064-0.127H212.2V54.161h0.127V54.1h0.127V54.034h0.127l0.064-.127,0.19-.063v-25.8H212.9v0.063l0.317,0.063c0.022,0.042.043,0.084,0.064,0.127h0.191V28.36l0.254,0.063v0.063h0.127l0.063,0.127h0.127v0.063h0.127V28.74H214.3V28.8h0.127c0.022,0.042.043,0.084,0.064,0.127h0.127v0.063h0.127v0.063h0.127V29.12H215v0.063l0.191,0.063,0.063,0.127,0.254,0.063V29.5l0.191,0.063,0.063,0.127,0.255,0.063,0.127,0.19h0.127l0.063,0.127h0.127l0.127,0.19h0.127c0.022,0.042.043,0.085,0.064,0.127H216.9l0.127,0.19h0.127l0.127,0.19h0.127l0.191,0.254h0.127l0.317,0.38h0.127l0.445,0.507h0.127l0.635,0.7,0.763,0.7v0.127l0.444,0.38v0.127l0.382,0.317v0.127l0.254,0.19V34.7l0.127,0.063v0.127l0.254,0.19v0.127l0.127,0.063V35.4l0.19,0.127V35.65l0.127,0.063V35.84l0.191,0.127v0.127l0.127,0.063c0.021,0.063.042,0.127,0.064,0.19h0.063v0.127l0.127,0.063c0.043,0.127.085,0.254,0.127,0.38h0.064l0.063,0.19h0.064v0.063h-0.064l-0.127.19h0.064a0.426,0.426,0,0,1,.19-0.19,1.982,1.982,0,0,0,.318.634v0.127L223.447,38v0.127h0.064v0.127h0.063v0.127h0.064V38.5H223.7v0.127h0.064v0.127h0.063c0.043,0.127.085,0.254,0.127,0.38h0.064l0.063,0.317h0.064l0.063,0.254h0.064V39.9h0.063v0.127H224.4v0.19h0.063v0.127h0.064v0.19h0.064v0.127h0.063q0.444,1.521.889,3.043,0.1,0.729.191,1.458a13.255,13.255,0,0,1,.254,3.423,6.989,6.989,0,0,1-.063,1.585q-0.033.634-.064,1.268c-0.134.454-.177,1.071-0.318,1.521v0.317H225.48ZM208.137,28.993l-0.127.19h0.064l0.127-.19h-0.064Zm-7.115,7.1-0.063.127s0.184-.1.127-0.127h-0.064Zm-0.19.19-0.127.19h0.063l0.127-.19h-0.063Zm-0.254.254-0.191.254h0.064l0.19-.254h-0.063Zm-0.508.507-0.191.254h0.064l0.19-.254H200.07Zm-0.318.317c-0.021.042-.042,0.085-0.064,0.127,0.005,0,.185-0.1.128-0.127h-0.064Zm-0.191.19-0.19.254h0.063l0.191-.254h-0.064Zm-0.317.317L199.18,38s0.184-.1.127-0.127h-0.063Zm-0.191.19-0.19.254h0.063l0.191-.254h-0.064Zm-0.317.317c-0.022.042-.043,0.085-0.064,0.127,0,0,.184-0.1.127-0.127h-0.063Zm-0.191.19-0.191.254h0.064l0.191-.254h-0.064Zm-0.318.317-0.063.127c0.005,0,.184-0.1.127-0.127h-0.064Zm-0.19.19-0.191.254h0.064l0.19-.254h-0.063Zm-0.318.317-0.063.127s0.184-.1.127-0.127h-0.064Zm-0.19.19-0.191.254H197.4l0.19-.254h-0.063Zm-0.318.317-0.381.444,0.444-.38V39.9h-0.063Zm11.117,11.665c-0.021.042-.042,0.085-0.064,0.127,0,0,.185-0.1.127-0.127h-0.063Zm-0.191.19-0.127.19h0.064l0.127-.19h-0.064Zm-0.317.317-0.064.127s0.184-.1.127-0.127H207.82Zm-0.191.19-0.127.19h0.064l0.127-.19h-0.064Zm-0.317.317c-0.022.042-.043,0.085-0.064,0.127,0,0,.184-0.1.127-0.127h-0.063Zm-0.191.19-0.127.19h0.063l0.127-.19h-0.063Zm-22.933.254-0.063.127s0.184-.1.127-0.127h-0.064ZM206.8,53.083l-0.063.127s0.184-.1.127-0.127H206.8Zm-6.289.19,0.191,0.254h0.063A0.643,0.643,0,0,0,200.514,53.273Zm6.1,0-0.127.19h0.063l0.127-.19h-0.063Zm-5.781.317a0.26,0.26,0,0,0,.127.127C201.006,53.656,200.849,53.606,200.832,53.59Zm5.463,0-0.063.127s0.184-.1.127-0.127H206.3Zm-5.273.19,0.191,0.254h0.064A0.653,0.653,0,0,0,201.022,53.781Zm5.083,0-0.127.19h0.063l0.127-.19h-0.063Zm-4.765.317a0.266,0.266,0,0,0,.127.127C201.514,54.163,201.357,54.113,201.34,54.1Zm0.191,0.19,0.19,0.254h0.064A0.656,0.656,0,0,0,201.531,54.288Zm0.317,0.317a0.69,0.69,0,0,0,.318.317A2.142,2.142,0,0,0,201.848,54.6Zm4.066,4.057a0.26,0.26,0,0,0,.127.127C206.088,58.727,205.931,58.677,205.914,58.662Zm-4.892.19-0.127.19h0.064l0.127-.19h-0.064Zm5.083,0,0.19,0.254h0.064A0.656,0.656,0,0,0,206.105,58.852Zm-5.4.317c-0.021.042-.042,0.084-0.064,0.127,0,0,.184-0.1.127-0.127h-0.063Zm5.717,0a0.266,0.266,0,0,0,.127.127C206.6,59.234,206.439,59.184,206.422,59.169Zm-5.908.19-0.127.19h0.064l0.127-.19h-0.064Zm6.1,0,0.19,0.254h0.064A0.657,0.657,0,0,0,206.613,59.359Zm-6.416.317c-0.022.042-.043,0.084-0.064,0.127,0,0,.184-0.1.127-0.127H200.2Zm6.733,0a0.7,0.7,0,0,0,.318.317A2.146,2.146,0,0,0,206.93,59.676Zm-6.924.19-0.127.19h0.064l0.127-.19h-0.064Zm-0.318.317-0.063.127s0.184-.1.127-0.127h-0.064Zm-0.19.19-0.127.19h0.063l0.127-.19H199.5Zm-0.318.317-0.063.127s0.184-.1.127-0.127H199.18Zm-0.19.19-0.127.19h0.063l0.127-.19H198.99Zm-12.833,1.775,0.128,0.19h0.063A0.327,0.327,0,0,0,186.157,62.656Z" transform="translate(-181 -25.969)"/>
</svg>
